<?xml version="1.0" standalone="yes"?>

<svg version="1.1" viewBox="0.0 0.0 751.8818897637796 552.6194225721785" fill="none" stroke="none" stroke-linecap="square" stroke-miterlimit="10" xmlns="http://www.w3.org/2000/svg" xmlns:xlink="http://www.w3.org/1999/xlink"><clipPath id="p.0"><path d="m0 0l751.8819 0l0 552.61945l-751.8819 0l0 -552.61945z" clip-rule="nonzero"></path></clipPath><g clip-path="url(#p.0)"><path fill="#000000" fill-opacity="0.0" d="m0 0l751.8819 0l0 552.61945l-751.8819 0z" fill-rule="nonzero"></path><path fill="#000000" fill-opacity="0.0" d="m529.37537 329.2244l0 0c0 -11.616089 19.180054 -21.032806 42.839905 -21.032806c23.65979 0 42.839905 9.416718 42.839905 21.032806l0 84.131256c0 11.616089 -19.180115 21.032806 -42.839905 21.032806c-23.659851 0 -42.839905 -9.416718 -42.839905 -21.032806z" fill-rule="nonzero"></path><path fill="#000000" fill-opacity="0.0" d="m615.0552 329.2244l0 0c0 11.616119 -19.180115 21.032837 -42.839905 21.032837c-23.659851 0 -42.839905 -9.416718 -42.839905 -21.032837" fill-rule="nonzero"></path><path fill="#000000" fill-opacity="0.0" d="m529.37537 329.2244l0 0c0 -11.616089 19.180054 -21.032806 42.839905 -21.032806c23.65979 0 42.839905 9.416718 42.839905 21.032806l0 84.131256c0 11.616089 -19.180115 21.032806 -42.839905 21.032806c-23.659851 0 -42.839905 -9.416718 -42.839905 -21.032806z" fill-rule="nonzero"></path><path stroke="#000000" stroke-width="1.0" stroke-linejoin="round" stroke-linecap="butt" d="m615.0552 329.2244l0 0c0 11.616119 -19.180115 21.032837 -42.839905 21.032837c-23.659851 0 -42.839905 -9.416718 -42.839905 -21.032837" fill-rule="nonzero"></path><path stroke="#000000" stroke-width="1.0" stroke-linejoin="round" stroke-linecap="butt" d="m529.37537 329.2244l0 0c0 -11.616089 19.180054 -21.032806 42.839905 -21.032806c23.65979 0 42.839905 9.416718 42.839905 21.032806l0 84.131256c0 11.616089 -19.180115 21.032806 -42.839905 21.032806c-23.659851 0 -42.839905 -9.416718 -42.839905 -21.032806z" fill-rule="nonzero"></path><path fill="#000000" d="m554.2607 388.72644l-1.546875 0l0 -13.59375l1.65625 0l0 4.84375q1.0625 -1.328125 2.703125 -1.328125q0.90625 0 1.71875 0.375q0.8125 0.359375 1.328125 1.03125q0.53125 0.65625 0.828125 1.59375q0.296875 0.9375 0.296875 2.0q0 2.53125 -1.25 3.921875q-1.25 1.375 -3.0 1.375q-1.75 0 -2.734375 -1.453125l0 1.234375zm-0.015625 -5.0q0 1.765625 0.46875 2.5625q0.796875 1.28125 2.140625 1.28125q1.09375 0 1.890625 -0.9375q0.796875 -0.953125 0.796875 -2.84375q0 -1.921875 -0.765625 -2.84375q-0.765625 -0.921875 -1.84375 -0.921875q-1.09375 0 -1.890625 0.953125q-0.796875 0.953125 -0.796875 2.75zm15.594482 1.828125l1.71875 0.21875q-0.40625 1.5 -1.515625 2.34375q-1.09375 0.828125 -2.8125 0.828125q-2.15625 0 -3.421875 -1.328125q-1.265625 -1.328125 -1.265625 -3.734375q0 -2.484375 1.265625 -3.859375q1.28125 -1.375 3.328125 -1.375q1.984375 0 3.234375 1.34375q1.25 1.34375 1.25 3.796875q0 0.140625 -0.015625 0.4375l-7.34375 0q0.09375 1.625 0.921875 2.484375q0.828125 0.859375 2.0625 0.859375q0.90625 0 1.546875 -0.46875q0.65625 -0.484375 1.046875 -1.546875zm-5.484375 -2.703125l5.5 0q-0.109375 -1.234375 -0.625 -1.859375q-0.796875 -0.96875 -2.078125 -0.96875q-1.140625 0 -1.9375 0.78125q-0.78125 0.765625 -0.859375 2.046875zm15.547607 4.65625q-0.9375 0.796875 -1.796875 1.125q-0.859375 0.3125 -1.84375 0.3125q-1.609375 0 -2.484375 -0.78125q-0.875 -0.796875 -0.875 -2.03125q0 -0.734375 0.328125 -1.328125q0.328125 -0.59375 0.859375 -0.953125q0.53125 -0.359375 1.203125 -0.546875q0.5 -0.140625 1.484375 -0.25q2.03125 -0.25 2.984375 -0.578125q0 -0.34375 0 -0.4375q0 -1.015625 -0.46875 -1.4375q-0.640625 -0.5625 -1.90625 -0.5625q-1.171875 0 -1.734375 0.40625q-0.5625 0.40625 -0.828125 1.46875l-1.640625 -0.234375q0.234375 -1.046875 0.734375 -1.6875q0.515625 -0.640625 1.46875 -0.984375q0.96875 -0.359375 2.25 -0.359375q1.265625 0 2.046875 0.296875q0.78125 0.296875 1.15625 0.75q0.375 0.453125 0.515625 1.140625q0.09375 0.421875 0.09375 1.53125l0 2.234375q0 2.328125 0.09375 2.953125q0.109375 0.609375 0.4375 1.171875l-1.75 0q-0.265625 -0.515625 -0.328125 -1.21875zm-0.140625 -3.71875q-0.90625 0.359375 -2.734375 0.625q-1.03125 0.140625 -1.453125 0.328125q-0.421875 0.1875 -0.65625 0.546875q-0.234375 0.359375 -0.234375 0.796875q0 0.671875 0.5 1.125q0.515625 0.4375 1.484375 0.4375q0.96875 0 1.71875 -0.421875q0.75 -0.4375 1.109375 -1.15625q0.265625 -0.578125 0.265625 -1.671875l0 -0.609375zm10.469482 4.9375l0 -1.25q-0.9375 1.46875 -2.75 1.46875q-1.171875 0 -2.171875 -0.640625q-0.984375 -0.65625 -1.53125 -1.8125q-0.53125 -1.171875 -0.53125 -2.6875q0 -1.46875 0.484375 -2.671875q0.5 -1.203125 1.46875 -1.84375q0.984375 -0.640625 2.203125 -0.640625q0.890625 0 1.578125 0.375q0.703125 0.375 1.140625 0.984375l0 -4.875l1.65625 0l0 13.59375l-1.546875 0zm-5.28125 -4.921875q0 1.890625 0.796875 2.828125q0.8125 0.9375 1.890625 0.9375q1.09375 0 1.859375 -0.890625q0.765625 -0.890625 0.765625 -2.734375q0 -2.015625 -0.78125 -2.953125q-0.78125 -0.953125 -1.921875 -0.953125q-1.109375 0 -1.859375 0.90625q-0.75 0.90625 -0.75 2.859375z" fill-rule="nonzero"></path><path fill="#000000" fill-opacity="0.0" d="m54.464565 252.43347l146.38316 0l0 176.46811c-73.18765 0 -73.18765 67.895996 -146.38316 33.947998zm12.060177 0l0 -22.878006l145.38339 0l0 177.57512c-5.5262756 0 -11.06041 1.2299805 -11.06041 1.2299805l0 -155.9271zm11.3359375 -22.878006l0 -22.324493l146.64294 0l0 177.02159c-6.2977295 0 -12.595474 0.92251587 -12.595474 0.92251587l0 -155.61961z" fill-rule="nonzero"></path><path fill="#000000" fill-opacity="0.0" d="m54.464565 252.43347l146.38316 0l0 176.46811c-73.18765 0 -73.18765 67.895996 -146.38316 33.947998zm12.060177 0l0 -22.878006l145.38339 0l0 177.57512c-5.5262756 0 -11.06041 1.2299805 -11.06041 1.2299805m-122.98705 -178.8051l0 -22.324493l146.64294 0l0 177.02159c-6.2977295 0 -12.595474 0.92251587 -12.595474 0.92251587" fill-rule="nonzero"></path><path fill="#000000" fill-opacity="0.0" d="m54.464565 462.84958c73.19551 33.947998 73.19551 -33.947998 146.38316 -33.947998l0 -20.541016c0 0 5.534134 -1.2299805 11.06041 -1.2299805l0 -21.955505c0 0 6.2977448 -0.92251587 12.595474 -0.92251587l0 -177.02159l-146.64294 0l0 22.324493l-11.3359375 0l0 22.878006l-12.060177 0z" fill-rule="nonzero"></path><path stroke="#000000" stroke-width="1.0" stroke-linejoin="round" stroke-linecap="butt" d="m54.464565 252.43347l146.38316 0l0 176.46811c-73.18765 0 -73.18765 67.895996 -146.38316 33.947998zm12.060177 0l0 -22.878006l145.38339 0l0 177.57512c-5.5262756 0 -11.06041 1.2299805 -11.06041 1.2299805m-122.98705 -178.8051l0 -22.324493l146.64294 0l0 177.02159c-6.2977295 0 -12.595474 0.92251587 -12.595474 0.92251587" fill-rule="nonzero"></path><path fill="#000000" d="m86.14784 364.56152l-3.015625 -9.859375l1.71875 0l1.5625 5.6875l0.59375 2.125q0.03125 -0.15625 0.5 -2.03125l1.578125 -5.78125l1.71875 0l1.46875 5.71875l0.484375 1.890625l0.578125 -1.90625l1.6875 -5.703125l1.625 0l-3.078125 9.859375l-1.734375 0l-1.578125 -5.90625l-0.375 -1.671875l-2.0 7.578125l-1.734375 0zm11.019821 -4.921875q0 -2.734375 1.53125 -4.0625q1.265625 -1.09375 3.09375 -1.09375q2.03125 0 3.3125 1.34375q1.296875 1.328125 1.296875 3.671875q0 1.90625 -0.578125 3.0q-0.5625 1.078125 -1.65625 1.6875q-1.078125 0.59375 -2.375 0.59375q-2.0625 0 -3.34375 -1.328125q-1.28125 -1.328125 -1.28125 -3.8125zm1.71875 0q0 1.890625 0.828125 2.828125q0.828125 0.9375 2.078125 0.9375q1.25 0 2.0625 -0.9375q0.828125 -0.953125 0.828125 -2.890625q0 -1.828125 -0.828125 -2.765625q-0.828125 -0.9375 -2.0625 -0.9375q-1.25 0 -2.078125 0.9375q-0.828125 0.9375 -0.828125 2.828125zm9.266342 4.921875l0 -9.859375l1.5 0l0 1.5q0.578125 -1.046875 1.0625 -1.375q0.484375 -0.34375 1.078125 -0.34375q0.84375 0 1.71875 0.546875l-0.578125 1.546875q-0.609375 -0.359375 -1.234375 -0.359375q-0.546875 0 -0.984375 0.328125q-0.421875 0.328125 -0.609375 0.90625q-0.28125 0.890625 -0.28125 1.953125l0 5.15625l-1.671875 0zm6.243927 0l0 -13.59375l1.671875 0l0 7.75l3.953125 -4.015625l2.15625 0l-3.765625 3.65625l4.140625 6.203125l-2.0625 0l-3.25 -5.03125l-1.171875 1.125l0 3.90625l-1.671875 0zm8.640625 -2.9375l1.65625 -0.265625q0.140625 1.0 0.765625 1.53125q0.640625 0.515625 1.78125 0.515625q1.15625 0 1.703125 -0.46875q0.5625 -0.46875 0.5625 -1.09375q0 -0.5625 -0.484375 -0.890625q-0.34375 -0.21875 -1.703125 -0.5625q-1.84375 -0.46875 -2.5625 -0.796875q-0.703125 -0.34375 -1.078125 -0.9375q-0.359375 -0.609375 -0.359375 -1.328125q0 -0.65625 0.296875 -1.21875q0.3125 -0.5625 0.828125 -0.9375q0.390625 -0.28125 1.0625 -0.484375q0.671875 -0.203125 1.4375 -0.203125q1.171875 0 2.046875 0.34375q0.875 0.328125 1.28125 0.90625q0.421875 0.5625 0.578125 1.515625l-1.625 0.21875q-0.109375 -0.75 -0.65625 -1.171875q-0.53125 -0.4375 -1.5 -0.4375q-1.15625 0 -1.640625 0.390625q-0.484375 0.375 -0.484375 0.875q0 0.328125 0.203125 0.59375q0.203125 0.265625 0.640625 0.4375q0.25 0.09375 1.46875 0.4375q1.765625 0.46875 2.46875 0.765625q0.703125 0.296875 1.09375 0.875q0.40625 0.578125 0.40625 1.4375q0 0.828125 -0.484375 1.578125q-0.484375 0.734375 -1.40625 1.140625q-0.921875 0.390625 -2.078125 0.390625q-1.921875 0 -2.9375 -0.796875q-1.0 -0.796875 -1.28125 -2.359375zm10.0 6.71875l0 -13.640625l1.53125 0l0 1.28125q0.53125 -0.75 1.203125 -1.125q0.6875 -0.375 1.640625 -0.375q1.265625 0 2.234375 0.65625q0.96875 0.640625 1.453125 1.828125q0.5 1.1875 0.5 2.59375q0 1.515625 -0.546875 2.734375q-0.546875 1.203125 -1.578125 1.84375q-1.03125 0.640625 -2.171875 0.640625q-0.84375 0 -1.515625 -0.34375q-0.65625 -0.359375 -1.078125 -0.890625l0 4.796875l-1.671875 0zm1.515625 -8.65625q0 1.90625 0.765625 2.8125q0.78125 0.90625 1.875 0.90625q1.109375 0 1.890625 -0.9375q0.796875 -0.9375 0.796875 -2.921875q0 -1.875 -0.78125 -2.8125q-0.765625 -0.9375 -1.84375 -0.9375q-1.0625 0 -1.890625 1.0q-0.8125 1.0 -0.8125 2.890625zm15.297592 3.65625q-0.9375 0.796875 -1.796875 1.125q-0.859375 0.3125 -1.84375 0.3125q-1.609375 0 -2.484375 -0.78125q-0.875 -0.796875 -0.875 -2.03125q0 -0.734375 0.328125 -1.328125q0.328125 -0.59375 0.859375 -0.953125q0.53125 -0.359375 1.203125 -0.546875q0.5 -0.140625 1.484375 -0.25q2.03125 -0.25 2.984375 -0.578125q0 -0.34375 0 -0.4375q0 -1.015625 -0.46875 -1.4375q-0.640625 -0.5625 -1.90625 -0.5625q-1.171875 0 -1.734375 0.40625q-0.5625 0.40625 -0.828125 1.46875l-1.640625 -0.234375q0.234375 -1.046875 0.734375 -1.6875q0.515625 -0.640625 1.46875 -0.984375q0.96875 -0.359375 2.25 -0.359375q1.265625 0 2.046875 0.296875q0.78125 0.296875 1.15625 0.75q0.375 0.453125 0.515625 1.140625q0.09375 0.421875 0.09375 1.53125l0 2.234375q0 2.328125 0.09375 2.953125q0.109375 0.609375 0.4375 1.171875l-1.75 0q-0.265625 -0.515625 -0.328125 -1.21875zm-0.140625 -3.71875q-0.90625 0.359375 -2.734375 0.625q-1.03125 0.140625 -1.453125 0.328125q-0.421875 0.1875 -0.65625 0.546875q-0.234375 0.359375 -0.234375 0.796875q0 0.671875 0.5 1.125q0.515625 0.4375 1.484375 0.4375q0.96875 0 1.71875 -0.421875q0.75 -0.4375 1.109375 -1.15625q0.265625 -0.578125 0.265625 -1.671875l0 -0.609375zm10.516342 1.328125l1.640625 0.21875q-0.265625 1.6875 -1.375 2.65625q-1.109375 0.953125 -2.734375 0.953125q-2.015625 0 -3.25 -1.3125q-1.21875 -1.328125 -1.21875 -3.796875q0 -1.59375 0.515625 -2.78125q0.53125 -1.203125 1.609375 -1.796875q1.09375 -0.609375 2.359375 -0.609375q1.609375 0 2.625 0.8125q1.015625 0.8125 1.3125 2.3125l-1.625 0.25q-0.234375 -1.0 -0.828125 -1.5q-0.59375 -0.5 -1.421875 -0.5q-1.265625 0 -2.0625 0.90625q-0.78125 0.90625 -0.78125 2.859375q0 1.984375 0.765625 2.890625q0.765625 0.890625 1.984375 0.890625q0.984375 0 1.640625 -0.59375q0.65625 -0.609375 0.84375 -1.859375zm9.640625 0.4375l1.71875 0.21875q-0.40625 1.5 -1.515625 2.34375q-1.09375 0.828125 -2.8125 0.828125q-2.15625 0 -3.421875 -1.328125q-1.265625 -1.328125 -1.265625 -3.734375q0 -2.484375 1.265625 -3.859375q1.28125 -1.375 3.328125 -1.375q1.984375 0 3.234375 1.34375q1.25 1.34375 1.25 3.796875q0 0.140625 -0.015625 0.4375l-7.34375 0q0.09375 1.625 0.921875 2.484375q0.828125 0.859375 2.0625 0.859375q0.90625 0 1.546875 -0.46875q0.65625 -0.484375 1.046875 -1.546875zm-5.484375 -2.703125l5.5 0q-0.109375 -1.234375 -0.625 -1.859375q-0.796875 -0.96875 -2.078125 -0.96875q-1.140625 0 -1.9375 0.78125q-0.78125 0.765625 -0.859375 2.046875z" fill-rule="nonzero"></path><path fill="#000000" fill-opacity="0.0" d="m151.18214 207.23097c0 -12.499863 105.25984 -37.62178 210.5197 -24.999725c105.25983 12.62204 210.51965 62.988052 210.51965 125.97609" fill-rule="nonzero"></path><path stroke="#000000" stroke-width="1.0" stroke-linejoin="round" stroke-linecap="butt" d="m151.18214 207.23097c0 -12.499863 105.25984 -37.62178 210.5197 -24.99974c52.629944 6.311035 105.25986 22.05806 144.7323 44.100815c19.736206 11.021378 36.183044 23.616714 47.69586 37.393417c5.7564087 6.8883667 10.279297 14.0720825 13.363037 21.502075c1.5418701 3.7150269 2.723999 7.491577 3.520691 11.323608c0.19915771 0.9580078 0.37420654 1.9194641 0.5247803 2.8843079c0.07531738 0.48239136 0.14447021 0.9656677 0.2074585 1.4497681c0.03149414 0.24203491 0.061462402 0.48428345 0.08984375 0.7267456l0.066833496 0.60388184" fill-rule="evenodd"></path><path fill="#000000" stroke="#000000" stroke-width="1.0" stroke-linecap="butt" d="m570.25323 302.30362l1.890625 4.4439087l1.4082031 -4.6194763z" fill-rule="evenodd"></path><path fill="#000000" fill-opacity="0.0" d="m220.83989 139.86613l312.18896 0l0 42.5197l-312.18896 0z" fill-rule="nonzero"></path><path fill="#000000" d="m328.39166 155.14551l0 5.171875q1.40625 -1.84375 3.40625 -1.84375q1.703125 0 2.921875 1.25q1.21875 1.234375 1.21875 3.03125q0 1.8125 -1.234375 3.078125q-1.234375 1.265625 -2.90625 1.265625q-2.046875 0 -3.40625 -1.84375l0 1.53125l-1.828125 0q-0.28125 0 -0.40625 -0.109375q-0.109375 -0.109375 -0.109375 -0.28125q0 -0.171875 0.109375 -0.28125q0.125 -0.109375 0.40625 -0.109375l1.046875 0l0 -10.078125l-1.046875 0q-0.28125 0 -0.40625 -0.109375q-0.109375 -0.109375 -0.109375 -0.28125q0 -0.171875 0.109375 -0.28125q0.125 -0.109375 0.40625 -0.109375l1.828125 0zm6.765625 7.640625q0 -1.46875 -1.015625 -2.5q-1.015625 -1.03125 -2.359375 -1.03125q-1.359375 0 -2.375 1.03125q-1.0 1.03125 -1.0 2.5q0 1.46875 1.0 2.5q1.015625 1.03125 2.375 1.03125q1.34375 0 2.359375 -1.03125q1.015625 -1.03125 1.015625 -2.5zm11.79248 0.171875l-7.953125 0q0.21875 1.515625 1.28125 2.4375q1.0625 0.921875 2.625 0.921875q0.875 0 1.828125 -0.28125q0.953125 -0.296875 1.5625 -0.765625q0.171875 -0.140625 0.296875 -0.140625q0.15625 0 0.265625 0.125q0.109375 0.109375 0.109375 0.265625q0 0.15625 -0.15625 0.296875q-0.4375 0.46875 -1.578125 0.875q-1.140625 0.40625 -2.328125 0.40625q-2.0 0 -3.34375 -1.3125q-1.34375 -1.3125 -1.34375 -3.1875q0 -1.6875 1.25 -2.90625q1.265625 -1.21875 3.125 -1.21875q1.90625 0 3.140625 1.25q1.234375 1.25 1.21875 3.234375zm-0.796875 -0.796875q-0.234375 -1.28125 -1.21875 -2.09375q-0.984375 -0.8125 -2.34375 -0.8125q-1.375 0 -2.359375 0.8125q-0.96875 0.796875 -1.21875 2.09375l7.140625 0zm10.214355 4.625l0 -1.125q-1.6875 1.4375 -3.625 1.4375q-1.40625 0 -2.1875 -0.703125q-0.78125 -0.71875 -0.78125 -1.75q0 -1.140625 1.03125 -1.984375q1.046875 -0.84375 3.03125 -0.84375q0.546875 0 1.171875 0.078125q0.625 0.0625 1.359375 0.21875l0 -1.265625q0 -0.640625 -0.59375 -1.109375q-0.59375 -0.484375 -1.78125 -0.484375q-0.90625 0 -2.546875 0.53125q-0.296875 0.09375 -0.375 0.09375q-0.15625 0 -0.265625 -0.109375q-0.109375 -0.109375 -0.109375 -0.28125q0 -0.15625 0.09375 -0.25q0.140625 -0.140625 1.0625 -0.375q1.4375 -0.390625 2.1875 -0.390625q1.46875 0 2.296875 0.734375q0.828125 0.71875 0.828125 1.640625l0 5.15625l1.03125 0q0.296875 0 0.40625 0.109375q0.125 0.109375 0.125 0.28125q0 0.171875 -0.125 0.28125q-0.109375 0.109375 -0.40625 0.109375l-1.828125 0zm0 -3.875q-0.546875 -0.15625 -1.15625 -0.234375q-0.609375 -0.078125 -1.28125 -0.078125q-1.703125 0 -2.65625 0.734375q-0.734375 0.546875 -0.734375 1.3125q0 0.703125 0.546875 1.1875q0.5625 0.484375 1.625 0.484375q1.0 0 1.859375 -0.40625q0.875 -0.40625 1.796875 -1.28125l0 -1.71875zm12.97998 -7.765625l0 10.859375l1.046875 0q0.28125 0 0.40625 0.109375q0.125 0.109375 0.125 0.28125q0 0.171875 -0.125 0.28125q-0.125 0.109375 -0.40625 0.109375l-1.828125 0l0 -1.546875q-1.359375 1.859375 -3.453125 1.859375q-1.046875 0 -2.015625 -0.5625q-0.96875 -0.5625 -1.53125 -1.59375q-0.5625 -1.046875 -0.5625 -2.15625q0 -1.109375 0.5625 -2.140625q0.5625 -1.046875 1.53125 -1.609375q0.96875 -0.5625 2.03125 -0.5625q2.046875 0 3.4375 1.859375l0 -4.40625l-1.046875 0q-0.28125 0 -0.40625 -0.109375q-0.125 -0.109375 -0.125 -0.28125q0 -0.171875 0.125 -0.28125q0.125 -0.109375 0.40625 -0.109375l1.828125 0zm-0.78125 7.640625q0 -1.484375 -1.015625 -2.5q-1.0 -1.03125 -2.375 -1.03125q-1.390625 0 -2.390625 1.03125q-1.0 1.015625 -1.0 2.5q0 1.46875 1.0 2.5q1.0 1.03125 2.390625 1.03125q1.375 0 2.375 -1.03125q1.015625 -1.03125 1.015625 -2.5zm22.350586 -3.53125q0 -0.265625 0.109375 -0.375q0.109375 -0.125 0.28125 -0.125q0.171875 0 0.28125 0.125q0.109375 0.109375 0.109375 0.40625l0 1.328125q0 0.28125 -0.109375 0.40625q-0.109375 0.109375 -0.28125 0.109375q-0.171875 0 -0.28125 -0.09375q-0.09375 -0.109375 -0.109375 -0.34375q-0.0625 -0.546875 -0.578125 -0.90625q-0.765625 -0.53125 -2.015625 -0.53125q-1.3125 0 -2.03125 0.53125q-0.546875 0.40625 -0.546875 0.890625q0 0.5625 0.640625 0.9375q0.453125 0.25 1.703125 0.390625q1.609375 0.171875 2.25 0.40625q0.890625 0.328125 1.328125 0.90625q0.453125 0.5625 0.453125 1.234375q0 0.984375 -0.953125 1.765625q-0.953125 0.78125 -2.8125 0.78125q-1.84375 0 -3.015625 -0.9375q0 0.3125 -0.046875 0.40625q-0.03125 0.09375 -0.125 0.15625q-0.09375 0.0625 -0.21875 0.0625q-0.171875 0 -0.28125 -0.109375q-0.109375 -0.125 -0.109375 -0.40625l0 -1.609375q0 -0.28125 0.109375 -0.390625q0.109375 -0.125 0.28125 -0.125q0.171875 0 0.28125 0.125q0.109375 0.109375 0.109375 0.296875q0 0.421875 0.21875 0.71875q0.328125 0.4375 1.03125 0.734375q0.71875 0.296875 1.75 0.296875q1.515625 0 2.25 -0.5625q0.75 -0.578125 0.75 -1.203125q0 -0.71875 -0.75 -1.15625q-0.765625 -0.4375 -2.21875 -0.578125q-1.453125 -0.15625 -2.078125 -0.390625q-0.625 -0.25 -0.984375 -0.734375q-0.359375 -0.484375 -0.359375 -1.03125q0 -1.015625 0.984375 -1.59375q0.984375 -0.59375 2.359375 -0.59375q1.609375 0 2.625 0.78125zm11.058105 7.53125l0 -1.125q-1.6875 1.4375 -3.625 1.4375q-1.40625 0 -2.1875 -0.703125q-0.78125 -0.71875 -0.78125 -1.75q0 -1.140625 1.03125 -1.984375q1.046875 -0.84375 3.03125 -0.84375q0.546875 0 1.171875 0.078125q0.625 0.0625 1.359375 0.21875l0 -1.265625q0 -0.640625 -0.59375 -1.109375q-0.59375 -0.484375 -1.78125 -0.484375q-0.90625 0 -2.546875 0.53125q-0.296875 0.09375 -0.375 0.09375q-0.15625 0 -0.265625 -0.109375q-0.109375 -0.109375 -0.109375 -0.28125q0 -0.15625 0.09375 -0.25q0.140625 -0.140625 1.0625 -0.375q1.4375 -0.390625 2.1875 -0.390625q1.46875 0 2.296875 0.734375q0.828125 0.71875 0.828125 1.640625l0 5.15625l1.03125 0q0.296875 0 0.40625 0.109375q0.125 0.109375 0.125 0.28125q0 0.171875 -0.125 0.28125q-0.109375 0.109375 -0.40625 0.109375l-1.828125 0zm0 -3.875q-0.546875 -0.15625 -1.15625 -0.234375q-0.609375 -0.078125 -1.28125 -0.078125q-1.703125 0 -2.65625 0.734375q-0.734375 0.546875 -0.734375 1.3125q0 0.703125 0.546875 1.1875q0.5625 0.484375 1.625 0.484375q1.0 0 1.859375 -0.40625q0.875 -0.40625 1.796875 -1.28125l0 -1.71875zm9.85498 3.875l-1.328125 0l-3.203125 -7.25l-0.796875 0q-0.28125 0 -0.40625 -0.109375q-0.109375 -0.109375 -0.109375 -0.28125q0 -0.171875 0.109375 -0.28125q0.125 -0.109375 0.40625 -0.109375l2.921875 0q0.28125 0 0.40625 0.109375q0.125 0.109375 0.125 0.28125q0 0.171875 -0.125 0.28125q-0.125 0.109375 -0.40625 0.109375l-1.28125 0l2.859375 6.46875l0.34375 0l2.796875 -6.46875l-1.296875 0q-0.28125 0 -0.40625 -0.109375q-0.109375 -0.109375 -0.109375 -0.28125q0 -0.171875 0.109375 -0.28125q0.125 -0.109375 0.40625 -0.109375l2.921875 0q0.296875 0 0.40625 0.109375q0.125 0.109375 0.125 0.28125q0 0.171875 -0.125 0.28125q-0.109375 0.109375 -0.40625 0.109375l-0.78125 0l-3.15625 7.25zm14.933105 -3.828125l-7.953125 0q0.21875 1.515625 1.28125 2.4375q1.0625 0.921875 2.625 0.921875q0.875 0 1.828125 -0.28125q0.953125 -0.296875 1.5625 -0.765625q0.171875 -0.140625 0.296875 -0.140625q0.15625 0 0.265625 0.125q0.109375 0.109375 0.109375 0.265625q0 0.15625 -0.15625 0.296875q-0.4375 0.46875 -1.578125 0.875q-1.140625 0.40625 -2.328125 0.40625q-2.0 0 -3.34375 -1.3125q-1.34375 -1.3125 -1.34375 -3.1875q0 -1.6875 1.25 -2.90625q1.265625 -1.21875 3.125 -1.21875q1.90625 0 3.140625 1.25q1.234375 1.25 1.21875 3.234375zm-0.796875 -0.796875q-0.234375 -1.28125 -1.21875 -2.09375q-0.984375 -0.8125 -2.34375 -0.8125q-1.375 0 -2.359375 0.8125q-0.96875 0.796875 -1.21875 2.09375l7.140625 0z" fill-rule="nonzero"></path><path fill="#000000" fill-opacity="0.0" d="m193.83727 497.75592l312.18896 0l0 64.346436l-312.18896 0z" fill-rule="nonzero"></path><path fill="#000000" d="m284.28625 513.0353l0 5.171875q1.40625 -1.84375 3.40625 -1.84375q1.703125 0 2.921875 1.25q1.21875 1.234375 1.21875 3.03125q0 1.8125 -1.234375 3.078125q-1.234375 1.265625 -2.90625 1.265625q-2.046875 0 -3.40625 -1.84375l0 1.53125l-1.828125 0q-0.28125 0 -0.40625 -0.109375q-0.109375 -0.109375 -0.109375 -0.28125q0 -0.171875 0.109375 -0.28125q0.125 -0.109375 0.40625 -0.109375l1.046875 0l0 -10.078125l-1.046875 0q-0.28125 0 -0.40625 -0.109375q-0.109375 -0.109375 -0.109375 -0.28125q0 -0.171875 0.109375 -0.28125q0.125 -0.109375 0.40625 -0.109375l1.828125 0zm6.765625 7.640625q0 -1.46875 -1.015625 -2.5q-1.015625 -1.03125 -2.359375 -1.03125q-1.359375 0 -2.375 1.03125q-1.0 1.03125 -1.0 2.5q0 1.46875 1.0 2.5q1.015625 1.03125 2.375 1.03125q1.34375 0 2.359375 -1.03125q1.015625 -1.03125 1.015625 -2.5zm11.79248 0.171875l-7.953125 0q0.21875 1.515625 1.28125 2.4375q1.0625 0.921875 2.625 0.921875q0.875 0 1.828125 -0.28125q0.953125 -0.296875 1.5625 -0.765625q0.171875 -0.140625 0.296875 -0.140625q0.15625 0 0.265625 0.125q0.109375 0.109375 0.109375 0.265625q0 0.15625 -0.15625 0.296875q-0.4375 0.46875 -1.578125 0.875q-1.140625 0.40625 -2.328125 0.40625q-2.0 0 -3.34375 -1.3125q-1.34375 -1.3125 -1.34375 -3.1875q0 -1.6875 1.25 -2.90625q1.265625 -1.21875 3.125 -1.21875q1.90625 0 3.140625 1.25q1.234375 1.25 1.21875 3.234375zm-0.796875 -0.796875q-0.234375 -1.28125 -1.21875 -2.09375q-0.984375 -0.8125 -2.34375 -0.8125q-1.375 0 -2.359375 0.8125q-0.96875 0.796875 -1.21875 2.09375l7.140625 0zm10.214355 4.625l0 -1.125q-1.6875 1.4375 -3.625 1.4375q-1.40625 0 -2.1875 -0.703125q-0.78125 -0.71875 -0.78125 -1.75q0 -1.140625 1.03125 -1.984375q1.046875 -0.84375 3.03125 -0.84375q0.546875 0 1.171875 0.078125q0.625 0.0625 1.359375 0.21875l0 -1.265625q0 -0.640625 -0.59375 -1.109375q-0.59375 -0.484375 -1.78125 -0.484375q-0.90625 0 -2.546875 0.53125q-0.296875 0.09375 -0.375 0.09375q-0.15625 0 -0.265625 -0.109375q-0.109375 -0.109375 -0.109375 -0.28125q0 -0.15625 0.09375 -0.25q0.140625 -0.140625 1.0625 -0.375q1.4375 -0.390625 2.1875 -0.390625q1.46875 0 2.296875 0.734375q0.828125 0.71875 0.828125 1.640625l0 5.15625l1.03125 0q0.296875 0 0.40625 0.109375q0.125 0.109375 0.125 0.28125q0 0.171875 -0.125 0.28125q-0.109375 0.109375 -0.40625 0.109375l-1.828125 0zm0 -3.875q-0.546875 -0.15625 -1.15625 -0.234375q-0.609375 -0.078125 -1.28125 -0.078125q-1.703125 0 -2.65625 0.734375q-0.734375 0.546875 -0.734375 1.3125q0 0.703125 0.546875 1.1875q0.5625 0.484375 1.625 0.484375q1.0 0 1.859375 -0.40625q0.875 -0.40625 1.796875 -1.28125l0 -1.71875zm12.97998 -7.765625l0 10.859375l1.046875 0q0.28125 0 0.40625 0.109375q0.125 0.109375 0.125 0.28125q0 0.171875 -0.125 0.28125q-0.125 0.109375 -0.40625 0.109375l-1.828125 0l0 -1.546875q-1.359375 1.859375 -3.453125 1.859375q-1.046875 0 -2.015625 -0.5625q-0.96875 -0.5625 -1.53125 -1.59375q-0.5625 -1.046875 -0.5625 -2.15625q0 -1.109375 0.5625 -2.140625q0.5625 -1.046875 1.53125 -1.609375q0.96875 -0.5625 2.03125 -0.5625q2.046875 0 3.4375 1.859375l0 -4.40625l-1.046875 0q-0.28125 0 -0.40625 -0.109375q-0.125 -0.109375 -0.125 -0.28125q0 -0.171875 0.125 -0.28125q0.125 -0.109375 0.40625 -0.109375l1.828125 0zm-0.78125 7.640625q0 -1.484375 -1.015625 -2.5q-1.0 -1.03125 -2.375 -1.03125q-1.390625 0 -2.390625 1.03125q-1.0 1.015625 -1.0 2.5q0 1.46875 1.0 2.5q1.0 1.03125 2.390625 1.03125q1.375 0 2.375 -1.03125q1.015625 -1.03125 1.015625 -2.5zm23.58496 -7.640625l0 10.859375l1.046875 0q0.28125 0 0.40625 0.109375q0.125 0.109375 0.125 0.28125q0 0.171875 -0.125 0.28125q-0.125 0.109375 -0.40625 0.109375l-1.828125 0l0 -1.546875q-1.359375 1.859375 -3.453125 1.859375q-1.046875 0 -2.015625 -0.5625q-0.96875 -0.5625 -1.53125 -1.59375q-0.5625 -1.046875 -0.5625 -2.15625q0 -1.109375 0.5625 -2.140625q0.5625 -1.046875 1.53125 -1.609375q0.96875 -0.5625 2.03125 -0.5625q2.046875 0 3.4375 1.859375l0 -4.40625l-1.046875 0q-0.28125 0 -0.40625 -0.109375q-0.125 -0.109375 -0.125 -0.28125q0 -0.171875 0.125 -0.28125q0.125 -0.109375 0.40625 -0.109375l1.828125 0zm-0.78125 7.640625q0 -1.484375 -1.015625 -2.5q-1.0 -1.03125 -2.375 -1.03125q-1.390625 0 -2.390625 1.03125q-1.0 1.015625 -1.0 2.5q0 1.46875 1.0 2.5q1.0 1.03125 2.390625 1.03125q1.375 0 2.375 -1.03125q1.015625 -1.03125 1.015625 -2.5zm12.589355 0.171875l-7.953125 0q0.21875 1.515625 1.28125 2.4375q1.0625 0.921875 2.625 0.921875q0.875 0 1.828125 -0.28125q0.953125 -0.296875 1.5625 -0.765625q0.171875 -0.140625 0.296875 -0.140625q0.15625 0 0.265625 0.125q0.109375 0.109375 0.109375 0.265625q0 0.15625 -0.15625 0.296875q-0.4375 0.46875 -1.578125 0.875q-1.140625 0.40625 -2.328125 0.40625q-2.0 0 -3.34375 -1.3125q-1.34375 -1.3125 -1.34375 -3.1875q0 -1.6875 1.25 -2.90625q1.265625 -1.21875 3.125 -1.21875q1.90625 0 3.140625 1.25q1.234375 1.25 1.21875 3.234375zm-0.796875 -0.796875q-0.234375 -1.28125 -1.21875 -2.09375q-0.984375 -0.8125 -2.34375 -0.8125q-1.375 0 -2.359375 0.8125q-0.96875 0.796875 -1.21875 2.09375l7.140625 0zm8.66748 4.625l-1.328125 0l-3.203125 -7.25l-0.796875 0q-0.28125 0 -0.40625 -0.109375q-0.109375 -0.109375 -0.109375 -0.28125q0 -0.171875 0.109375 -0.28125q0.125 -0.109375 0.40625 -0.109375l2.921875 0q0.28125 0 0.40625 0.109375q0.125 0.109375 0.125 0.28125q0 0.171875 -0.125 0.28125q-0.125 0.109375 -0.40625 0.109375l-1.28125 0l2.859375 6.46875l0.34375 0l2.796875 -6.46875l-1.296875 0q-0.28125 0 -0.40625 -0.109375q-0.109375 -0.109375 -0.109375 -0.28125q0 -0.171875 0.109375 -0.28125q0.125 -0.109375 0.40625 -0.109375l2.921875 0q0.296875 0 0.40625 0.109375q0.125 0.109375 0.125 0.28125q0 0.171875 -0.125 0.28125q-0.109375 0.109375 -0.40625 0.109375l-0.78125 0l-3.15625 7.25zm14.933105 -3.828125l-7.953125 0q0.21875 1.515625 1.28125 2.4375q1.0625 0.921875 2.625 0.921875q0.875 0 1.828125 -0.28125q0.953125 -0.296875 1.5625 -0.765625q0.171875 -0.140625 0.296875 -0.140625q0.15625 0 0.265625 0.125q0.109375 0.109375 0.109375 0.265625q0 0.15625 -0.15625 0.296875q-0.4375 0.46875 -1.578125 0.875q-1.140625 0.40625 -2.328125 0.40625q-2.0 0 -3.34375 -1.3125q-1.34375 -1.3125 -1.34375 -3.1875q0 -1.6875 1.25 -2.90625q1.265625 -1.21875 3.125 -1.21875q1.90625 0 3.140625 1.25q1.234375 1.25 1.21875 3.234375zm-0.796875 -0.796875q-0.234375 -1.28125 -1.21875 -2.09375q-0.984375 -0.8125 -2.34375 -0.8125q-1.375 0 -2.359375 0.8125q-0.96875 0.796875 -1.21875 2.09375l7.140625 0zm8.370605 -7.015625l0 10.859375l3.0625 0q0.28125 0 0.40625 0.109375q0.125 0.109375 0.125 0.28125q0 0.171875 -0.125 0.28125q-0.125 0.109375 -0.40625 0.109375l-6.90625 0q-0.28125 0 -0.40625 -0.109375q-0.109375 -0.109375 -0.109375 -0.28125q0 -0.171875 0.109375 -0.28125q0.125 -0.109375 0.40625 -0.109375l3.0625 0l0 -10.078125l-2.234375 0q-0.28125 0 -0.40625 -0.109375q-0.125 -0.109375 -0.125 -0.28125q0 -0.171875 0.109375 -0.28125q0.125 -0.109375 0.421875 -0.109375l3.015625 0zm15.370605 7.640625q0 1.78125 -1.28125 3.046875q-1.28125 1.265625 -3.078125 1.265625q-1.8125 0 -3.09375 -1.265625q-1.265625 -1.28125 -1.265625 -3.046875q0 -1.78125 1.265625 -3.046875q1.28125 -1.265625 3.09375 -1.265625q1.796875 0 3.078125 1.265625q1.28125 1.25 1.28125 3.046875zm-0.796875 0q0 -1.46875 -1.046875 -2.5q-1.03125 -1.03125 -2.515625 -1.03125q-1.484375 0 -2.53125 1.046875q-1.046875 1.03125 -1.046875 2.484375q0 1.453125 1.046875 2.5q1.046875 1.03125 2.53125 1.03125q1.484375 0 2.515625 -1.03125q1.046875 -1.046875 1.046875 -2.5zm4.9018555 -4.03125l0 1.421875q0.6875 -0.84375 1.484375 -1.265625q0.8125 -0.4375 1.890625 -0.4375q1.15625 0 2.125 0.546875q0.96875 0.53125 1.5 1.5q0.546875 0.953125 0.546875 2.0q0 1.6875 -1.203125 2.890625q-1.203125 1.1875 -2.953125 1.1875q-2.09375 0 -3.390625 -1.703125l0 4.6875l1.890625 0q0.28125 0 0.390625 0.109375q0.125 0.109375 0.125 0.28125q0 0.171875 -0.125 0.28125q-0.109375 0.109375 -0.390625 0.109375l-3.71875 0q-0.28125 0 -0.40625 -0.109375q-0.109375 -0.09375 -0.109375 -0.28125q0 -0.171875 0.109375 -0.28125q0.125 -0.109375 0.40625 -0.109375l1.046875 0l0 -10.046875l-1.046875 0q-0.28125 0 -0.40625 -0.109375q-0.109375 -0.109375 -0.109375 -0.28125q0 -0.171875 0.109375 -0.28125q0.125 -0.109375 0.40625 -0.109375l1.828125 0zm6.75 3.765625q0 -1.34375 -0.984375 -2.296875q-0.96875 -0.96875 -2.375 -0.96875q-1.421875 0 -2.40625 0.96875q-0.984375 0.96875 -0.984375 2.296875q0 1.359375 0.984375 2.328125q0.984375 0.953125 2.40625 0.953125q1.390625 0 2.375 -0.953125q0.984375 -0.96875 0.984375 -2.328125z" fill-rule="nonzero"></path><path fill="#000000" fill-opacity="0.0" d="m572.2153 434.38846c0 31.483246 -111.141754 59.40747 -222.28348 62.966522c-111.14174 3.5590515 -222.28346 -17.24704 -222.28346 -34.49408" fill-rule="nonzero"></path><path stroke="#000000" stroke-width="1.0" stroke-linejoin="round" stroke-linecap="butt" d="m572.2153 434.38846c0 31.483246 -111.141754 59.40747 -222.28348 62.966522c-55.57086 1.779541 -111.14172 -2.5322266 -152.81987 -9.444763c-20.83908 -3.4562378 -38.204987 -7.562683 -50.361115 -11.883026c-6.078064 -2.1601868 -10.853683 -4.37381 -14.109787 -6.5863647c-0.40701294 -0.2765808 -0.7902832 -0.5531006 -1.1493835 -0.8295593c-0.17956543 -0.13821411 -0.35307312 -0.2763672 -0.52049255 -0.41455078l-0.23077393 -0.19393921" fill-rule="evenodd"></path><path fill="#000000" stroke="#000000" stroke-width="1.0" stroke-linecap="butt" d="m132.15588 467.1516l-3.754181 -3.0379028l0.92315674 4.7402954z" fill-rule="evenodd"></path><path fill="#000000" fill-opacity="0.0" d="m142.14278 53.120735c0 38.527557 2.259842 57.791336 4.519684 77.05512c2.259842 19.263779 4.519684 38.527557 4.519684 77.055115" fill-rule="nonzero"></path><path stroke="#000000" stroke-width="1.0" stroke-linejoin="round" stroke-linecap="butt" d="m142.14278 53.120735c0 38.527557 2.259842 57.791336 4.519684 77.05512c1.1299286 9.631882 2.259842 19.263779 3.1072845 31.303635c0.4237213 6.019928 0.77682495 12.641861 1.0239868 20.166779c0.12359619 3.762436 0.22068787 7.750656 0.28689575 12.002228c0.033111572 2.1257935 0.05848694 4.3174286 0.07559204 6.579605l0.005645752 1.0029144" fill-rule="evenodd"></path><path fill="#000000" stroke="#000000" stroke-width="1.0" stroke-linecap="butt" d="m149.51013 201.23659l1.6670685 4.532486l1.636383 -4.5436554z" fill-rule="evenodd"></path><path fill="#000000" fill-opacity="0.0" d="m-9.918635 16.259842l312.189 0l0 42.519684l-312.189 0z" fill-rule="nonzero"></path><path fill="#000000" d="m103.33405 31.539215l0 5.171875q1.40625 -1.84375 3.40625 -1.84375q1.703125 0 2.921875 1.25q1.21875 1.234375 1.21875 3.03125q0 1.8125 -1.234375 3.078125q-1.234375 1.265625 -2.90625 1.265625q-2.046875 0 -3.40625 -1.84375l0 1.53125l-1.828125 0q-0.28125 0 -0.40625 -0.109375q-0.109375 -0.109375 -0.109375 -0.28125q0 -0.171875 0.109375 -0.28125q0.125 -0.109375 0.40625 -0.109375l1.046875 0l0 -10.078125l-1.046875 0q-0.28125 0 -0.40625 -0.109375q-0.109375 -0.109375 -0.109375 -0.28125q0 -0.171875 0.109375 -0.28125q0.125 -0.109375 0.40625 -0.109375l1.828125 0zm6.765625 7.640625q0 -1.46875 -1.015625 -2.5q-1.015625 -1.03125 -2.359375 -1.03125q-1.359375 0 -2.375 1.03125q-1.0 1.03125 -1.0 2.5q0 1.46875 1.0 2.5q1.015625 1.03125 2.375 1.03125q1.34375 0 2.359375 -1.03125q1.015625 -1.03125 1.015625 -2.5zm11.79248 0.171875l-7.953125 0q0.21875 1.515625 1.28125 2.4375q1.0625 0.921875 2.625 0.921875q0.875 0 1.828125 -0.28125q0.953125 -0.296875 1.5625 -0.765625q0.171875 -0.140625 0.296875 -0.140625q0.15625 0 0.265625 0.125q0.109375 0.109375 0.109375 0.265625q0 0.15625 -0.15625 0.296875q-0.4375 0.46875 -1.578125 0.875q-1.140625 0.40625 -2.328125 0.40625q-2.0 0 -3.34375 -1.3125q-1.34375 -1.3125 -1.34375 -3.1875q0 -1.6875 1.25 -2.90625q1.265625 -1.21875 3.125 -1.21875q1.90625 0 3.140625 1.25q1.234375 1.25 1.21875 3.234375zm-0.796875 -0.796875q-0.234375 -1.28125 -1.21875 -2.09375q-0.984375 -0.8125 -2.34375 -0.8125q-1.375 0 -2.359375 0.8125q-0.96875 0.796875 -1.21875 2.09375l7.140625 0zm10.214348 4.625l0 -1.125q-1.6875 1.4375 -3.6249924 1.4375q-1.40625 0 -2.1875 -0.703125q-0.78125 -0.71875 -0.78125 -1.75q0 -1.140625 1.03125 -1.984375q1.046875 -0.84375 3.0312424 -0.84375q0.546875 0 1.171875 0.078125q0.625 0.0625 1.359375 0.21875l0 -1.265625q0 -0.640625 -0.59375 -1.109375q-0.59375 -0.484375 -1.78125 -0.484375q-0.90625 0 -2.5468674 0.53125q-0.296875 0.09375 -0.375 0.09375q-0.15625 0 -0.265625 -0.109375q-0.109375 -0.109375 -0.109375 -0.28125q0 -0.15625 0.09375 -0.25q0.140625 -0.140625 1.0625 -0.375q1.4374924 -0.390625 2.1874924 -0.390625q1.46875 0 2.296875 0.734375q0.828125 0.71875 0.828125 1.640625l0 5.15625l1.03125 0q0.296875 0 0.40625 0.109375q0.125 0.109375 0.125 0.28125q0 0.171875 -0.125 0.28125q-0.109375 0.109375 -0.40625 0.109375l-1.828125 0zm0 -3.875q-0.546875 -0.15625 -1.15625 -0.234375q-0.609375 -0.078125 -1.28125 -0.078125q-1.7031174 0 -2.6562424 0.734375q-0.734375 0.546875 -0.734375 1.3125q0 0.703125 0.546875 1.1875q0.5625 0.484375 1.625 0.484375q0.9999924 0 1.8593674 -0.40625q0.875 -0.40625 1.796875 -1.28125l0 -1.71875zm12.97998 -7.765625l0 10.859375l1.046875 0q0.28125 0 0.40625 0.109375q0.125 0.109375 0.125 0.28125q0 0.171875 -0.125 0.28125q-0.125 0.109375 -0.40625 0.109375l-1.828125 0l0 -1.546875q-1.359375 1.859375 -3.453125 1.859375q-1.046875 0 -2.015625 -0.5625q-0.96875 -0.5625 -1.53125 -1.59375q-0.5625 -1.046875 -0.5625 -2.15625q0 -1.109375 0.5625 -2.140625q0.5625 -1.046875 1.53125 -1.609375q0.96875 -0.5625 2.03125 -0.5625q2.046875 0 3.4375 1.859375l0 -4.40625l-1.046875 0q-0.28125 0 -0.40625 -0.109375q-0.125 -0.109375 -0.125 -0.28125q0 -0.171875 0.125 -0.28125q0.125 -0.109375 0.40625 -0.109375l1.828125 0zm-0.78125 7.640625q0 -1.484375 -1.015625 -2.5q-1.0 -1.03125 -2.375 -1.03125q-1.390625 0 -2.390625 1.03125q-1.0 1.015625 -1.0 2.5q0 1.46875 1.0 2.5q1.0 1.03125 2.390625 1.03125q1.375 0 2.375 -1.03125q1.015625 -1.03125 1.015625 -2.5zm17.256836 -4.03125l0 1.171875q0.8125 -0.828125 1.46875 -1.140625q0.65625 -0.3125 1.484375 -0.3125q0.890625 0 1.625 0.375q0.515625 0.28125 0.9375 0.9375q0.421875 0.640625 0.421875 1.3125l0 4.90625l0.65625 0q0.28125 0 0.40625 0.109375q0.125 0.109375 0.125 0.28125q0 0.171875 -0.125 0.28125q-0.125 0.109375 -0.40625 0.109375l-2.078125 0q-0.296875 0 -0.421875 -0.109375q-0.109375 -0.109375 -0.109375 -0.28125q0 -0.171875 0.109375 -0.28125q0.125 -0.109375 0.421875 -0.109375l0.640625 0l0 -4.78125q0 -0.828125 -0.609375 -1.390625q-0.59375 -0.578125 -1.609375 -0.578125q-0.765625 0 -1.328125 0.3125q-0.5625 0.3125 -1.609375 1.546875l0 4.890625l0.875 0q0.28125 0 0.390625 0.109375q0.125 0.109375 0.125 0.28125q0 0.171875 -0.125 0.28125q-0.109375 0.109375 -0.390625 0.109375l-2.546875 0q-0.265625 0 -0.390625 -0.109375q-0.125 -0.109375 -0.125 -0.28125q0 -0.171875 0.125 -0.28125q0.125 -0.109375 0.390625 -0.109375l0.890625 0l0 -6.46875l-0.65625 0q-0.28125 0 -0.40625 -0.109375q-0.125 -0.109375 -0.125 -0.28125q0 -0.171875 0.125 -0.28125q0.125 -0.109375 0.40625 -0.109375l1.4375 0zm18.13623 4.203125l-7.953125 0q0.21875 1.515625 1.28125 2.4375q1.0625 0.921875 2.625 0.921875q0.875 0 1.828125 -0.28125q0.953125 -0.296875 1.5625 -0.765625q0.171875 -0.140625 0.296875 -0.140625q0.15625 0 0.265625 0.125q0.109375 0.109375 0.109375 0.265625q0 0.15625 -0.15625 0.296875q-0.4375 0.46875 -1.578125 0.875q-1.140625 0.40625 -2.328125 0.40625q-2.0 0 -3.34375 -1.3125q-1.34375 -1.3125 -1.34375 -3.1875q0 -1.6875 1.25 -2.90625q1.265625 -1.21875 3.125 -1.21875q1.90625 0 3.140625 1.25q1.234375 1.25 1.21875 3.234375zm-0.796875 -0.796875q-0.234375 -1.28125 -1.21875 -2.09375q-0.984375 -0.8125 -2.34375 -0.8125q-1.375 0 -2.359375 0.8125q-0.96875 0.796875 -1.21875 2.09375l7.140625 0zm10.66748 4.625l-0.96875 0.015625l-1.71875 -5.015625l-1.703125 5.015625l-0.96875 -0.015625l-1.609375 -7.25l-0.375 0q-0.28125 0 -0.40625 -0.109375q-0.125 -0.109375 -0.125 -0.28125q0 -0.171875 0.125 -0.28125q0.125 -0.109375 0.40625 -0.109375l2.140625 0q0.265625 0 0.390625 0.109375q0.125 0.109375 0.125 0.28125q0 0.171875 -0.125 0.28125q-0.125 0.109375 -0.390625 0.109375l-1.0 0l1.390625 6.1875l1.65625 -4.9375l0.921875 0l1.71875 4.9375l1.3125 -6.1875l-0.984375 0q-0.265625 0 -0.390625 -0.109375q-0.125 -0.109375 -0.125 -0.28125q0 -0.171875 0.109375 -0.28125q0.125 -0.109375 0.40625 -0.109375l2.140625 0q0.28125 0 0.40625 0.109375q0.125 0.109375 0.125 0.28125q0 0.171875 -0.125 0.28125q-0.125 0.109375 -0.40625 0.109375l-0.375 0l-1.578125 7.25z" fill-rule="nonzero"></path><path fill="#000000" fill-opacity="0.0" d="m529.37537 371.29004c-76.21744 0 -114.324615 -7.8031616 -152.43484 -15.606323c-38.11023 -7.803131 -76.22354 -15.606293 -152.44705 -15.606293" fill-rule="nonzero"></path><path stroke="#000000" stroke-width="1.0" stroke-linejoin="round" stroke-linecap="butt" d="m529.37537 371.29004c-76.21744 0 -114.324585 -7.8031616 -152.43484 -15.606323c-19.055115 -3.9015503 -38.110992 -7.803131 -61.93106 -10.729309c-11.910004 -1.4631042 -25.011047 -2.6823425 -39.89859 -3.5358276c-7.4437866 -0.4267273 -15.334137 -0.7619934 -23.745575 -0.9906006c-4.2057037 -0.11431885 -8.541687 -0.20193481 -13.017212 -0.26101685c-2.2377625 -0.029510498 -4.5104218 -0.0519104 -6.8191376 -0.06692505l-1.035492 -0.005004883" fill-rule="evenodd"></path><path fill="#000000" stroke="#000000" stroke-width="1.0" stroke-linecap="butt" d="m230.49829 338.4433l-4.542923 1.6384277l4.5332336 1.6650391z" fill-rule="evenodd"></path><path fill="#000000" fill-opacity="0.0" d="m182.08136 288.25986l312.189 0l0 42.519684l-312.189 0z" fill-rule="nonzero"></path><path fill="#000000" d="m261.12848 303.5392l0 5.171875q1.40625 -1.84375 3.40625 -1.84375q1.703125 0 2.921875 1.25q1.21875 1.234375 1.21875 3.03125q0 1.8125 -1.234375 3.078125q-1.234375 1.265625 -2.90625 1.265625q-2.046875 0 -3.40625 -1.84375l0 1.53125l-1.828125 0q-0.28125 0 -0.40625 -0.109375q-0.109375 -0.109375 -0.109375 -0.28125q0 -0.171875 0.109375 -0.28125q0.125 -0.109375 0.40625 -0.109375l1.046875 0l0 -10.078125l-1.046875 0q-0.28125 0 -0.40625 -0.109375q-0.109375 -0.109375 -0.109375 -0.28125q0 -0.171875 0.109375 -0.28125q0.125 -0.109375 0.40625 -0.109375l1.828125 0zm6.765625 7.640625q0 -1.46875 -1.015625 -2.5q-1.015625 -1.03125 -2.359375 -1.03125q-1.359375 0 -2.375 1.03125q-1.0 1.03125 -1.0 2.5q0 1.46875 1.0 2.5q1.015625 1.03125 2.375 1.03125q1.34375 0 2.359375 -1.03125q1.015625 -1.03125 1.015625 -2.5zm11.79248 0.171875l-7.953125 0q0.21875 1.515625 1.28125 2.4375q1.0625 0.921875 2.625 0.921875q0.875 0 1.828125 -0.28125q0.953125 -0.296875 1.5625 -0.765625q0.171875 -0.140625 0.296875 -0.140625q0.15625 0 0.265625 0.125q0.109375 0.109375 0.109375 0.265625q0 0.15625 -0.15625 0.296875q-0.4375 0.46875 -1.578125 0.875q-1.140625 0.40625 -2.328125 0.40625q-2.0 0 -3.34375 -1.3125q-1.34375 -1.3125 -1.34375 -3.1875q0 -1.6875 1.25 -2.90625q1.265625 -1.21875 3.125 -1.21875q1.90625 0 3.140625 1.25q1.234375 1.25 1.21875 3.234375zm-0.796875 -0.796875q-0.234375 -1.28125 -1.21875 -2.09375q-0.984375 -0.8125 -2.34375 -0.8125q-1.375 0 -2.359375 0.8125q-0.96875 0.796875 -1.21875 2.09375l7.140625 0zm10.214355 4.625l0 -1.125q-1.6875 1.4375 -3.625 1.4375q-1.40625 0 -2.1875 -0.703125q-0.78125 -0.71875 -0.78125 -1.75q0 -1.140625 1.03125 -1.984375q1.046875 -0.84375 3.03125 -0.84375q0.546875 0 1.171875 0.078125q0.625 0.0625 1.359375 0.21875l0 -1.265625q0 -0.640625 -0.59375 -1.109375q-0.59375 -0.484375 -1.78125 -0.484375q-0.90625 0 -2.546875 0.53125q-0.296875 0.09375 -0.375 0.09375q-0.15625 0 -0.265625 -0.109375q-0.109375 -0.109375 -0.109375 -0.28125q0 -0.15625 0.09375 -0.25q0.140625 -0.140625 1.0625 -0.375q1.4375 -0.390625 2.1875 -0.390625q1.46875 0 2.296875 0.734375q0.828125 0.71875 0.828125 1.640625l0 5.15625l1.03125 0q0.296875 0 0.40625 0.109375q0.125 0.109375 0.125 0.28125q0 0.171875 -0.125 0.28125q-0.109375 0.109375 -0.40625 0.109375l-1.828125 0zm0 -3.875q-0.546875 -0.15625 -1.15625 -0.234375q-0.609375 -0.078125 -1.28125 -0.078125q-1.703125 0 -2.65625 0.734375q-0.734375 0.546875 -0.734375 1.3125q0 0.703125 0.546875 1.1875q0.5625 0.484375 1.625 0.484375q1.0 0 1.859375 -0.40625q0.875 -0.40625 1.796875 -1.28125l0 -1.71875zm12.97998 -7.765625l0 10.859375l1.046875 0q0.28125 0 0.40625 0.109375q0.125 0.109375 0.125 0.28125q0 0.171875 -0.125 0.28125q-0.125 0.109375 -0.40625 0.109375l-1.828125 0l0 -1.546875q-1.359375 1.859375 -3.453125 1.859375q-1.046875 0 -2.015625 -0.5625q-0.96875 -0.5625 -1.53125 -1.59375q-0.5625 -1.046875 -0.5625 -2.15625q0 -1.109375 0.5625 -2.140625q0.5625 -1.046875 1.53125 -1.609375q0.96875 -0.5625 2.03125 -0.5625q2.046875 0 3.4375 1.859375l0 -4.40625l-1.046875 0q-0.28125 0 -0.40625 -0.109375q-0.125 -0.109375 -0.125 -0.28125q0 -0.171875 0.125 -0.28125q0.125 -0.109375 0.40625 -0.109375l1.828125 0zm-0.78125 7.640625q0 -1.484375 -1.015625 -2.5q-1.0 -1.03125 -2.375 -1.03125q-1.390625 0 -2.390625 1.03125q-1.0 1.015625 -1.0 2.5q0 1.46875 1.0 2.5q1.0 1.03125 2.390625 1.03125q1.375 0 2.375 -1.03125q1.015625 -1.03125 1.015625 -2.5zm20.163086 -8.03125l0 2.015625l-1.15625 0l0 -2.015625l1.15625 0zm0.015625 4.0l0 7.25l3.0625 0q0.296875 0 0.40625 0.109375q0.125 0.109375 0.125 0.28125q0 0.171875 -0.125 0.28125q-0.109375 0.109375 -0.40625 0.109375l-6.90625 0q-0.265625 0 -0.390625 -0.109375q-0.125 -0.109375 -0.125 -0.28125q0 -0.171875 0.125 -0.28125q0.125 -0.109375 0.390625 -0.109375l3.0625 0l0 -6.46875l-2.265625 0q-0.28125 0 -0.40625 -0.109375q-0.125 -0.109375 -0.125 -0.28125q0 -0.171875 0.125 -0.28125q0.125 -0.109375 0.40625 -0.109375l3.046875 0zm8.47998 0l0 1.171875q0.8125 -0.828125 1.46875 -1.140625q0.65625 -0.3125 1.484375 -0.3125q0.890625 0 1.625 0.375q0.515625 0.28125 0.9375 0.9375q0.421875 0.640625 0.421875 1.3125l0 4.90625l0.65625 0q0.28125 0 0.40625 0.109375q0.125 0.109375 0.125 0.28125q0 0.171875 -0.125 0.28125q-0.125 0.109375 -0.40625 0.109375l-2.078125 0q-0.296875 0 -0.421875 -0.109375q-0.109375 -0.109375 -0.109375 -0.28125q0 -0.171875 0.109375 -0.28125q0.125 -0.109375 0.421875 -0.109375l0.640625 0l0 -4.78125q0 -0.828125 -0.609375 -1.390625q-0.59375 -0.578125 -1.609375 -0.578125q-0.765625 0 -1.328125 0.3125q-0.5625 0.3125 -1.609375 1.546875l0 4.890625l0.875 0q0.28125 0 0.390625 0.109375q0.125 0.109375 0.125 0.28125q0 0.171875 -0.125 0.28125q-0.109375 0.109375 -0.390625 0.109375l-2.546875 0q-0.265625 0 -0.390625 -0.109375q-0.125 -0.109375 -0.125 -0.28125q0 -0.171875 0.125 -0.28125q0.125 -0.109375 0.390625 -0.109375l0.890625 0l0 -6.46875l-0.65625 0q-0.28125 0 -0.40625 -0.109375q-0.125 -0.109375 -0.125 -0.28125q0 -0.171875 0.125 -0.28125q0.125 -0.109375 0.40625 -0.109375l1.4375 0zm10.97998 0l0 1.421875q0.6875 -0.84375 1.484375 -1.265625q0.8125 -0.4375 1.890625 -0.4375q1.15625 0 2.125 0.546875q0.96875 0.53125 1.5 1.5q0.546875 0.953125 0.546875 2.0q0 1.6875 -1.203125 2.890625q-1.203125 1.1875 -2.953125 1.1875q-2.09375 0 -3.390625 -1.703125l0 4.6875l1.890625 0q0.28125 0 0.390625 0.109375q0.125 0.109375 0.125 0.28125q0 0.171875 -0.125 0.28125q-0.109375 0.109375 -0.390625 0.109375l-3.71875 0q-0.28125 0 -0.40625 -0.109375q-0.109375 -0.09375 -0.109375 -0.28125q0 -0.171875 0.109375 -0.28125q0.125 -0.109375 0.40625 -0.109375l1.046875 0l0 -10.046875l-1.046875 0q-0.28125 0 -0.40625 -0.109375q-0.109375 -0.109375 -0.109375 -0.28125q0 -0.171875 0.109375 -0.28125q0.125 -0.109375 0.40625 -0.109375l1.828125 0zm6.75 3.765625q0 -1.34375 -0.984375 -2.296875q-0.96875 -0.96875 -2.375 -0.96875q-1.421875 0 -2.40625 0.96875q-0.984375 0.96875 -0.984375 2.296875q0 1.359375 0.984375 2.328125q0.984375 0.953125 2.40625 0.953125q1.390625 0 2.375 -0.953125q0.984375 -0.96875 0.984375 -2.328125zm10.26123 4.265625l0 -1.140625q-1.609375 1.453125 -3.453125 1.453125q-1.140625 0 -1.734375 -0.625q-0.78125 -0.8125 -0.78125 -1.90625l0 -5.03125l-1.046875 0q-0.28125 0 -0.40625 -0.109375q-0.109375 -0.109375 -0.109375 -0.28125q0 -0.171875 0.109375 -0.28125q0.125 -0.109375 0.40625 -0.109375l1.828125 0l0 5.8125q0 0.765625 0.484375 1.265625q0.484375 0.484375 1.203125 0.484375q1.90625 0 3.5 -1.75l0 -5.03125l-1.4375 0q-0.28125 0 -0.40625 -0.109375q-0.125 -0.109375 -0.125 -0.28125q0 -0.171875 0.125 -0.28125q0.125 -0.109375 0.40625 -0.109375l2.203125 0l0 7.25l0.671875 0q0.265625 0 0.390625 0.109375q0.125 0.109375 0.125 0.28125q0 0.171875 -0.125 0.28125q-0.125 0.109375 -0.390625 0.109375l-1.4375 0zm7.1206055 -8.03125l4.234375 0q0.28125 0 0.390625 0.109375q0.125 0.109375 0.125 0.28125q0 0.171875 -0.125 0.28125q-0.109375 0.109375 -0.390625 0.109375l-4.234375 0l0 5.1875q0 0.6875 0.546875 1.140625q0.546875 0.453125 1.59375 0.453125q0.78125 0 1.703125 -0.234375q0.921875 -0.25 1.4375 -0.546875q0.1875 -0.109375 0.296875 -0.109375q0.15625 0 0.265625 0.125q0.109375 0.109375 0.109375 0.265625q0 0.140625 -0.125 0.25q-0.296875 0.3125 -1.4375 0.671875q-1.140625 0.359375 -2.1875 0.359375q-1.375 0 -2.1875 -0.640625q-0.796875 -0.640625 -0.796875 -1.734375l0 -5.1875l-1.4375 0q-0.28125 0 -0.40625 -0.109375q-0.109375 -0.109375 -0.109375 -0.28125q0 -0.171875 0.109375 -0.28125q0.125 -0.109375 0.40625 -0.109375l1.4375 0l0 -2.296875q0 -0.28125 0.109375 -0.40625q0.109375 -0.125 0.28125 -0.125q0.171875 0 0.28125 0.125q0.109375 0.125 0.109375 0.40625l0 2.296875zm26.64746 8.03125l0 -1.125q-1.6875 1.4375 -3.625 1.4375q-1.40625 0 -2.1875 -0.703125q-0.78125 -0.71875 -0.78125 -1.75q0 -1.140625 1.03125 -1.984375q1.046875 -0.84375 3.03125 -0.84375q0.546875 0 1.171875 0.078125q0.625 0.0625 1.359375 0.21875l0 -1.265625q0 -0.640625 -0.59375 -1.109375q-0.59375 -0.484375 -1.78125 -0.484375q-0.90625 0 -2.546875 0.53125q-0.296875 0.09375 -0.375 0.09375q-0.15625 0 -0.265625 -0.109375q-0.109375 -0.109375 -0.109375 -0.28125q0 -0.15625 0.09375 -0.25q0.140625 -0.140625 1.0625 -0.375q1.4375 -0.390625 2.1875 -0.390625q1.46875 0 2.296875 0.734375q0.828125 0.71875 0.828125 1.640625l0 5.15625l1.03125 0q0.296875 0 0.40625 0.109375q0.125 0.109375 0.125 0.28125q0 0.171875 -0.125 0.28125q-0.109375 0.109375 -0.40625 0.109375l-1.828125 0zm0 -3.875q-0.546875 -0.15625 -1.15625 -0.234375q-0.609375 -0.078125 -1.28125 -0.078125q-1.703125 0 -2.65625 0.734375q-0.734375 0.546875 -0.734375 1.3125q0 0.703125 0.546875 1.1875q0.5625 0.484375 1.625 0.484375q1.0 0 1.859375 -0.40625q0.875 -0.40625 1.796875 -1.28125l0 -1.71875zm12.97998 -7.765625l0 10.859375l1.046875 0q0.28125 0 0.40625 0.109375q0.125 0.109375 0.125 0.28125q0 0.171875 -0.125 0.28125q-0.125 0.109375 -0.40625 0.109375l-1.828125 0l0 -1.546875q-1.359375 1.859375 -3.453125 1.859375q-1.046875 0 -2.015625 -0.5625q-0.96875 -0.5625 -1.53125 -1.59375q-0.5625 -1.046875 -0.5625 -2.15625q0 -1.109375 0.5625 -2.140625q0.5625 -1.046875 1.53125 -1.609375q0.96875 -0.5625 2.03125 -0.5625q2.046875 0 3.4375 1.859375l0 -4.40625l-1.046875 0q-0.28125 0 -0.40625 -0.109375q-0.125 -0.109375 -0.125 -0.28125q0 -0.171875 0.125 -0.28125q0.125 -0.109375 0.40625 -0.109375l1.828125 0zm-0.78125 7.640625q0 -1.484375 -1.015625 -2.5q-1.0 -1.03125 -2.375 -1.03125q-1.390625 0 -2.390625 1.03125q-1.0 1.015625 -1.0 2.5q0 1.46875 1.0 2.5q1.0 1.03125 2.390625 1.03125q1.375 0 2.375 -1.03125q1.015625 -1.03125 1.015625 -2.5zm12.183105 -7.640625l0 10.859375l1.046875 0q0.28125 0 0.40625 0.109375q0.125 0.109375 0.125 0.28125q0 0.171875 -0.125 0.28125q-0.125 0.109375 -0.40625 0.109375l-1.828125 0l0 -1.546875q-1.359375 1.859375 -3.453125 1.859375q-1.046875 0 -2.015625 -0.5625q-0.96875 -0.5625 -1.53125 -1.59375q-0.5625 -1.046875 -0.5625 -2.15625q0 -1.109375 0.5625 -2.140625q0.5625 -1.046875 1.53125 -1.609375q0.96875 -0.5625 2.03125 -0.5625q2.046875 0 3.4375 1.859375l0 -4.40625l-1.046875 0q-0.28125 0 -0.40625 -0.109375q-0.125 -0.109375 -0.125 -0.28125q0 -0.171875 0.125 -0.28125q0.125 -0.109375 0.40625 -0.109375l1.828125 0zm-0.78125 7.640625q0 -1.484375 -1.015625 -2.5q-1.0 -1.03125 -2.375 -1.03125q-1.390625 0 -2.390625 1.03125q-1.0 1.015625 -1.0 2.5q0 1.46875 1.0 2.5q1.0 1.03125 2.390625 1.03125q1.375 0 2.375 -1.03125q1.015625 -1.03125 1.015625 -2.5z" fill-rule="nonzero"></path><path fill="#000000" fill-opacity="0.0" d="m447.3491 245.74672l249.73227 0l0 251.08662l-249.73227 0z" fill-rule="nonzero"></path><path stroke="#000000" stroke-width="1.0" stroke-linejoin="round" stroke-linecap="butt" stroke-dasharray="4.0,3.0" d="m447.3491 245.74672l249.73227 0l0 251.08662l-249.73227 0z" fill-rule="nonzero"></path><path fill="#000000" fill-opacity="0.0" d="m494.08136 240.25984l202.99213 0l0 42.5197l-202.99213 0z" fill-rule="nonzero"></path><path fill="#000000" d="m660.79083 267.17984l-1.546875 0l0 -13.59375l1.65625 0l0 4.84375q1.0625 -1.328125 2.703125 -1.328125q0.90625 0 1.71875 0.375q0.8125 0.359375 1.328125 1.03125q0.53125 0.65625 0.828125 1.59375q0.296875 0.9375 0.296875 2.0q0 2.53125 -1.25 3.921875q-1.25 1.375 -3.0 1.375q-1.75 0 -2.734375 -1.453125l0 1.234375zm-0.015625 -5.0q0 1.765625 0.46875 2.5625q0.796875 1.28125 2.140625 1.28125q1.09375 0 1.890625 -0.9375q0.796875 -0.953125 0.796875 -2.84375q0 -1.921875 -0.765625 -2.84375q-0.765625 -0.921875 -1.84375 -0.921875q-1.09375 0 -1.890625 0.953125q-0.796875 0.953125 -0.796875 2.75zm8.219421 0.078125q0 -2.734375 1.53125 -4.0625q1.265625 -1.09375 3.09375 -1.09375q2.03125 0 3.3125 1.34375q1.296875 1.328125 1.296875 3.671875q0 1.90625 -0.578125 3.0q-0.5625 1.078125 -1.65625 1.6875q-1.078125 0.59375 -2.375 0.59375q-2.0625 0 -3.34375 -1.328125q-1.28125 -1.328125 -1.28125 -3.8125zm1.71875 0q0 1.890625 0.828125 2.828125q0.828125 0.9375 2.078125 0.9375q1.25 0 2.0625 -0.9375q0.828125 -0.953125 0.828125 -2.890625q0 -1.828125 -0.828125 -2.765625q-0.828125 -0.9375 -2.0625 -0.9375q-1.25 0 -2.078125 0.9375q-0.828125 0.9375 -0.828125 2.828125zm8.172607 4.921875l3.59375 -5.125l-3.328125 -4.734375l2.09375 0l1.515625 2.3125q0.421875 0.65625 0.671875 1.109375q0.421875 -0.609375 0.765625 -1.09375l1.65625 -2.328125l1.984375 0l-3.390625 4.640625l3.65625 5.21875l-2.046875 0l-2.03125 -3.0625l-0.53125 -0.828125l-2.59375 3.890625l-2.015625 0z" fill-rule="nonzero"></path></g></svg>

